<svg xmlns="http://www.w3.org/2000/svg" viewBox="0 0 130 137" id="pause"><g style="isolation:isolate"><g data-name="Layer 2"><g data-name="Layer 1"><path fill="#f93052" d="M117.2 65c0 29.41-23.41 53.25-52.3 53.25a51.43 51.43 0 0 1-33.6-12.45 53.26 53.26 0 0 1-17.72-30.52A54 54 0 0 1 12.6 65c0-29.41 23.4-53.25 52.3-53.25a51.56 51.56 0 0 1 28.8 8.8A52.74 52.74 0 0 1 105.13 31a53.6 53.6 0 0 1 12.07 34z"></path><path fill="#f15a24" d="M114.46 48l-66.31 67.46a51.73 51.73 0 01-16.85-9.66c.21-.27.43-.51.67-.76l71.31-72.61a9.58 9.58 0 011.85-1.43 53.57 53.57 0 019.33 17zM93.7 20.55c-.18.21-.35.41-.55.61L21.83 93.77c-.2.2-.39.38-.6.56a53.36 53.36 0 01-7.66-19L75 12.75a51.37 51.37 0 0118.7 7.8z"></path><path fill="#ed1c24" d="M129.31 62.5a65 65 0 0 1-128.62 0A66.08 66.08 0 0 0 0 72a65 65 0 0 0 130 0 66.08 66.08 0 0 0-.69-9.5z"></path><path fill="#f7931e" d="M65 20a45 45 0 1 1-45 45 45.05 45.05 0 0 1 45-45m0-20a65 65 0 1 0 65 65A65 65 0 0 0 65 0z"></path><path fill="#f15a24" d="M65.5 111c-25.27 0-47.76-9.89-62.11-25.26A65 65 0 0 0 126 87.37C111.64 101.81 89.86 111 65.5 111z"></path><path fill="#c1272d" d="M60.74 43v52.74a8.51 8.51 0 01-17 0V43a8.51 8.51 0 0117 0zM88 43v52.74a6.65 6.65 0 01-.05.83 8.5 8.5 0 01-16.92 0 6.65 6.65 0 01-.05-.83V43a8.51 8.51 0 0117 0z"></path><path fill="#fff" d="M59 41.26V94a8.51 8.51 0 01-17 0V41.26a8.51 8.51 0 0117 0zM86.28 41.26V94a6.65 6.65 0 01-.05.83 8.5 8.5 0 01-16.92 0 6.65 6.65 0 01-.05-.83V41.26a8.51 8.51 0 0117 0z"></path><path fill="#fff" d="M59 88.93V94a8.51 8.51 0 01-17 0v-5.07a8.51 8.51 0 0117 0zM86.23 94.87a8.5 8.5 0 01-16.92 0 8.51 8.51 0 0116.92 0z"></path><circle cx="49.77" cy="39" r="3.31" transform="rotate(-45 49.763 38.997)" style="mix-blend-mode:soft-light" fill="#fff"></circle><circle cx="50.16" cy="44.84" r="1.65" transform="rotate(-45 50.155 44.845)" style="mix-blend-mode:soft-light" fill="#fff"></circle><circle cx="78.16" cy="96.5" r="3.31" transform="rotate(-45 78.155 96.507)" style="mix-blend-mode:soft-light" fill="#fff"></circle><circle cx="77.77" cy="90.66" r="1.65" transform="rotate(-45 77.762 90.66)" style="mix-blend-mode:soft-light" fill="#fff"></circle></g></g></g></svg>