<?xml version="1.0" standalone="no"?>
<!DOCTYPE svg PUBLIC "-//W3C//DTD SVG 20010904//EN"
 "http://www.w3.org/TR/2001/REC-SVG-20010904/DTD/svg10.dtd">
<svg version="1.0" xmlns="http://www.w3.org/2000/svg"
 width="71.000000pt" height="84.000000pt" viewBox="0 0 71.000000 84.000000"
 preserveAspectRatio="xMidYMid meet">

<g transform="translate(0.000000,84.000000) scale(0.100000,-0.100000)"
fill="#000000" stroke="none">
<path d="M268 746 c-72 -26 -127 -66 -154 -113 -37 -62 -44 -175 -19 -271 17
-62 24 -73 93 -139 100 -96 151 -111 220 -67 22 14 23 21 20 87 -3 68 -2 71
22 77 29 7 52 46 45 77 -7 30 4 53 25 53 31 0 55 38 54 89 0 49 -27 108 -54
116 -8 3 -24 22 -35 42 -11 21 -31 43 -45 50 -32 16 -125 16 -172 -1z m151
-31 c56 -28 72 -155 20 -155 -10 0 -39 6 -65 12 -42 12 -47 11 -60 -7 -8 -11
-14 -31 -12 -45 3 -22 8 -25 43 -25 34 0 40 -3 43 -24 5 -32 -12 -46 -53 -42
-45 3 -52 -14 -32 -74 l16 -45 -80 0 -80 0 -18 43 c-58 133 -22 280 83 334 80
42 150 52 195 28z"/>
</g>
</svg>
